<?xml version="1.0" encoding="UTF-8" standalone="no"?>
<svg
   aria-hidden="true"
   focusable="false"
   data-prefix="fas"
   data-icon="expand-alt"
   class="svg-inline--fa fa-expand-alt fa-w-14"
   role="img"
   viewBox="0 0 448 512"
   version="1.1"
   id="svg11"
   sodipodi:docname="expand-alt-solid.svg"
   inkscape:version="1.1 (c4e8f9e, 2021-05-24)"
   xmlns:inkscape="http://www.inkscape.org/namespaces/inkscape"
   xmlns:sodipodi="http://sodipodi.sourceforge.net/DTD/sodipodi-0.dtd"
   xmlns="http://www.w3.org/2000/svg"
   xmlns:svg="http://www.w3.org/2000/svg">
  <defs
     id="defs15" />
  <sodipodi:namedview
     id="namedview13"
     pagecolor="#ffffff"
     bordercolor="#666666"
     borderopacity="1.0"
     inkscape:pageshadow="2"
     inkscape:pageopacity="0.0"
     inkscape:pagecheckerboard="0"
     showgrid="false"
     inkscape:zoom="1.1191406"
     inkscape:cx="264.04188"
     inkscape:cy="259.57417"
     inkscape:window-width="1196"
     inkscape:window-height="799"
     inkscape:window-x="0"
     inkscape:window-y="25"
     inkscape:window-maximized="0"
     inkscape:current-layer="svg11"
     width="512px" />
  <path
     fill="currentColor"
     d="M 235.314,315.314 328,408 295.078,439.029 c -15.12,15.12 -4.412,40.971 16.97,40.971 h 112 C 437.303,480 448,469.255 448,456 V 344 c 0,-21.382 -25.803,-32.09 -40.922,-16.971 L 376,360 283.314,267.314 c -6.248,-6.248 -16.379,-6.248 -22.627,0 l -25.373,25.373 c -6.249,6.248 -6.249,16.378 0,22.627 z M 212.686,196.686 120,104 152.922,72.971 C 168.042,57.851 157.334,32 135.952,32 h -112 C 10.697,32 0,42.745 0,56 v 112 c 0,21.382 25.803,32.09 40.922,16.971 L 72,152 l 92.686,92.686 c 6.248,6.248 16.379,6.248 22.627,0 l 25.373,-25.373 c 6.249,-6.248 6.249,-16.378 0,-22.627 z"
     id="path9" />
</svg>
